<?xml version="1.0" encoding="UTF-8" standalone="no"?>
<!-- Created with Inkscape (http://www.inkscape.org/) -->

<svg
   width="208mm"
   height="145mm"
   viewBox="0 0 208 145"
   version="1.1"
   id="svg5"
   inkscape:version="1.2.1 (0f2f062aeb, 2022-09-21, custom)"
   sodipodi:docname="hacthonmm"
   xml:space="preserve"
   xmlns:inkscape="http://www.inkscape.org/namespaces/inkscape"
   xmlns:sodipodi="http://sodipodi.sourceforge.net/DTD/sodipodi-0.dtd"
   xmlns="http://www.w3.org/2000/svg"
   xmlns:svg="http://www.w3.org/2000/svg"><sodipodi:namedview
     id="namedview7"
     pagecolor="#ffffff"
     bordercolor="#999999"
     borderopacity="1"
     inkscape:showpageshadow="0"
     inkscape:pageopacity="0"
     inkscape:pagecheckerboard="0"
     inkscape:deskcolor="#d1d1d1"
     inkscape:document-units="mm"
     showgrid="false"
     inkscape:zoom="0.70710678"
     inkscape:cx="475.88286"
     inkscape:cy="307.59145"
     inkscape:window-width="1366"
     inkscape:window-height="697"
     inkscape:window-x="0"
     inkscape:window-y="0"
     inkscape:window-maximized="1"
     inkscape:current-layer="g1237"
     showguides="false"
     inkscape:lockguides="false" /><defs
     id="defs2" /><g
     inkscape:label="Layer 1"
     inkscape:groupmode="layer"
     id="layer1"><path
       id="rect1630"
       style="fill:#000000;fill-opacity:0.152782;stroke:none;stroke-width:0.564999"
       d="M 83.197959,71.007971 C 77.550171,70.977724 71.368908,71.852154 65.34078,73.713657 49.265536,78.677545 40.543684,88.723963 45.784542,96.239619 l 18.569852,26.630621 c 5.240875,7.51566 22.402096,9.5699 38.477226,4.60606 0.91347,-0.28199 1.80134,-0.5812 2.66605,-0.89467 2.64358,-0.7255 5.28776,-1.58434 7.87984,-2.5753 l 59.11545,-22.59987 c 16.68335,-6.377987 24.68721,-15.712043 17.94555,-20.928143 -6.74166,-5.216109 -25.60026,-4.280454 -42.28363,2.097551 L 115.49264,95.06252 103.81709,78.319708 C 100.54158,73.622405 92.61064,71.058526 83.197959,71.007971 Z" /><rect
       style="fill:#ff8080;fill-opacity:0.982027;stroke:none;stroke-width:0.564999"
       id="rect234"
       width="52.321114"
       height="120.46394"
       x="105.10728"
       y="-73.382607"
       ry="30.397032"
       transform="rotate(43.410175)" /><g
       id="g1237"
       inkscape:label="g1237"
       transform="matrix(0.88182786,0,0,0.88182786,10.893515,16.031145)"
       style="stroke-width:1.13401"><path
         style="fill:#999999;fill-opacity:0.982027;fill-rule:nonzero;stroke:none;stroke-width:0.640713;stroke-opacity:1"
         d="M 34.371335,74.52278 C 17.705767,72.73015 23.343464,52.49463 36.491593,38.699806 L 34.820717,36.532495 C 31.276715,31.935375 28.918394,26.863982 27.707444,21.750014 8.3865567,41.054271 -10.404484,75.22139 12.553544,87.204955"
         id="path1310"
         sodipodi:nodetypes="ccscc" /><path
         style="fill:#999999;fill-opacity:0.982027;fill-rule:nonzero;stroke:none;stroke-width:0.640713;stroke-opacity:1"
         d="m 53.702228,16.533011 c -10.51229,-0.0133 -19.552771,3.863508 -27.680751,9.449831 6.376061,2.310743 16.150385,-4.268554 20.847364,1.824116 l 1.492399,1.935509 c 1.905389,-0.418916 3.87479,-0.682832 5.922434,-0.747741 4.986175,-0.158054 10.416303,0.819116 16.40001,3.347906 25.336874,10.707603 62.597536,65.945483 46.741436,98.627818 l 23.00558,13.67676 C 160.95023,99.882695 107.77694,35.724067 74.131212,21.134327 66.724498,17.922575 59.953296,16.540914 53.702228,16.533011 Z"
         id="path1055"
         sodipodi:nodetypes="scccscccss" /><rect
         style="fill:#787878;fill-opacity:0.982027;fill-rule:nonzero;stroke:none;stroke-width:0.0567631;stroke-dasharray:none;stroke-opacity:1"
         id="rect1395"
         width="23.215548"
         height="27.030748"
         x="37.863052"
         y="-64.441742"
         ry="8.722497"
         transform="matrix(0.3353018,0.94211077,-0.96231905,0.27192286,0,0)" /><rect
         style="display:none;fill:#ff8080;fill-opacity:0.982027;stroke:none;stroke-width:0.640817"
         id="rect234-3"
         width="57.260094"
         height="131.5547"
         x="3.3096845"
         y="20.850698"
         ry="28.630047"
         transform="matrix(0.91517253,-0.40306234,0.37965204,0.92512936,0,0)"
         rx="0"
         sodipodi:insensitive="true" /><rect
         style="stroke-width:0.0567003;fill:#ff8080;fill-opacity:0.98431373;fill-rule:nonzero;stroke:none;stroke-dasharray:none;stroke-opacity:1"
         id="rect6866"
         width="55.962368"
         height="135.12831"
         x="5.3404055"
         y="16.313538"
         ry="33.255531"
         transform="rotate(-21.083501)" /><rect
         style="fill:#787878;fill-opacity:0.982027;fill-rule:nonzero;stroke:none;stroke-width:0.0567535;stroke-dasharray:none;stroke-opacity:1"
         id="rect1390"
         width="15.074689"
         height="18.376091"
         x="68.172905"
         y="94.519676"
         ry="0"
         transform="matrix(0.89644953,-0.44314584,0.38747352,0.92188083,0,0)" /><path
         style="fill:#999999;fill-opacity:0.982027;fill-rule:nonzero;stroke:none;stroke-width:0.0567004;stroke-dasharray:none;stroke-opacity:1"
         d="M 12.070458,86.992815 C 36.100025,99.535685 202.20424,65.89062 207.65177,71.42884 L 188.94686,33.193808 C 177.02747,23.966838 48.398873,76.01089 34.003741,74.4625"
         id="path1325"
         sodipodi:nodetypes="cccc"
         inkscape:export-filename="../374e0005/hac111.svg"
         inkscape:export-xdpi="96"
         inkscape:export-ydpi="96" /></g></g></svg>
